<svg width="1920" height="1080" viewBox="0 0 1920 1080" fill="none" xmlns="http://www.w3.org/2000/svg">
<g opacity="0.1" clip-path="url(#clip0_1_8034)">
<path d="M1638.53 -139.12H1072.84L959.71 -25.9801L846.57 -139.12H280.88V426.57L394.02 539.71L280.88 652.84V1218.53H846.57L959.71 1105.39L1072.84 1218.53H1638.53V652.84L1525.39 539.71L1638.53 426.57V-139.12Z" stroke="black" stroke-miterlimit="10"/>
<path d="M959.71 -420.29L559.71 -20.29V139.71H399.71L-0.290039 539.71L399.71 939.71H559.71V1099.71L959.71 1499.71L1359.71 1099.71V939.71H1519.71L1919.71 539.71L1519.71 139.71H1359.71V-20.29L959.71 -420.29Z" stroke="black" stroke-miterlimit="10"/>
<path d="M1359.71 139.71H1026.37L959.71 206.37L893.04 139.71H559.71V473.04L626.37 539.71L559.71 606.37V939.71H893.04L959.71 873.04L1026.37 939.71H1359.71V606.37L1293.04 539.71L1359.71 473.04V139.71Z" stroke="black" stroke-miterlimit="10"/>
<path d="M959.71 -25.98L724 209.72V304H629.72L394.02 539.71L629.72 775.41H724V869.69L959.71 1105.39L1195.41 869.69V775.41H1289.69L1525.39 539.71L1289.69 304H1195.41V209.72L959.71 -25.98Z" stroke="black" stroke-miterlimit="10"/>
<path d="M1195.41 304H998.99L959.71 343.29L920.42 304H724V500.42L763.29 539.71L724 578.99V775.41H920.42L959.71 736.13L998.99 775.41H1195.41V578.99L1156.13 539.71L1195.41 500.42V304Z" stroke="black" stroke-miterlimit="10"/>
<path d="M959.71 206.37L820.82 345.26V400.82H765.26L626.37 539.71L765.26 678.6H820.82V734.15L959.71 873.04L1098.6 734.15V678.6H1154.15L1293.04 539.71L1154.15 400.82H1098.6V345.26L959.71 206.37Z" stroke="black" stroke-miterlimit="10"/>
<path d="M1038.27 461.14H972.8L959.71 474.23L946.61 461.14H881.14V526.61L894.23 539.71L881.14 552.8V618.27H946.61L959.71 605.18L972.8 618.27H1038.27V552.8L1025.18 539.71L1038.27 526.61V461.14Z" stroke="black" stroke-miterlimit="10"/>
<path d="M959.71 428.6L913.41 474.89V493.41H894.89L848.6 539.71L894.89 586H913.41V604.52L959.71 650.82L1006 604.52V586H1024.52L1070.82 539.71L1024.52 493.41H1006V474.89L959.71 428.6Z" stroke="black" stroke-miterlimit="10"/>
<path d="M1467.1 -43.8799H1543.3V32.3201" stroke="black" stroke-miterlimit="10"/>
<path d="M376.12 1047.1V1123.3H452.32" stroke="black" stroke-miterlimit="10"/>
<path d="M1467.1 1123.3H1543.3V1047.1" stroke="black" stroke-miterlimit="10"/>
<path d="M376.12 32.3201V-43.8799H452.32" stroke="black" stroke-miterlimit="10"/>
</g>
<defs>
<clipPath id="clip0_1_8034">
<rect width="1921.41" height="1921.41" fill="white" transform="translate(-1 -421)"/>
</clipPath>
</defs>
</svg>
