<?xml version="1.0" encoding="UTF-8"?><svg xmlns="http://www.w3.org/2000/svg" viewBox="0 0 488 488"><defs><style>.d{stroke-miterlimit:10;}.d,.e{fill:none;stroke:#000;stroke-width:8px;}.e{stroke-linejoin:round;}</style></defs><g id="a"/><g id="b"><g id="c"><g><g><polygon class="e" points="244 44 244 244 44 244 4 204 204 204 204 4 244 44"/><rect class="e" x="4" y="4" width="200" height="200"/><path d="M63.53,150.67L36,57.33h28.26l12.76,57.43h.73l15.13-57.43h22.24l15.13,57.61h.73l12.76-57.61h28.26l-27.53,93.34h-24.25l-15.86-52.14h-.73l-15.86,52.14h-24.25Z"/><line class="d" x1="204" y1="204" x2="244" y2="244"/></g><g><polygon class="e" points="244 44 244 244 444 244 484 204 284 204 284 4 244 44"/><rect class="e" x="284" y="4" width="200" height="200"/><path d="M397.62,86.54c-.24-3.05-1.38-5.42-3.41-7.13-2.03-1.71-5.1-2.56-9.21-2.56-2.62,0-4.76,.31-6.42,.94-1.66,.63-2.89,1.47-3.68,2.54-.79,1.07-1.2,2.29-1.23,3.66-.06,1.13,.14,2.14,.62,3.04,.47,.9,1.23,1.71,2.26,2.42,1.04,.72,2.36,1.36,3.98,1.94s3.54,1.1,5.76,1.55l7.68,1.65c5.18,1.1,9.62,2.55,13.3,4.34,3.69,1.8,6.7,3.91,9.05,6.33,2.35,2.42,4.07,5.14,5.19,8.16s1.68,6.31,1.71,9.87c-.03,6.16-1.57,11.37-4.62,15.63-3.05,4.27-7.4,7.51-13.05,9.74s-12.44,3.34-20.37,3.34-15.23-1.2-21.28-3.61c-6.05-2.41-10.74-6.12-14.08-11.13-3.34-5.01-5.02-11.44-5.05-19.27h24.14c.15,2.86,.87,5.27,2.15,7.22,1.28,1.95,3.08,3.43,5.42,4.43s5.11,1.51,8.34,1.51c2.71,0,4.98-.33,6.81-1.01,1.83-.67,3.21-1.6,4.16-2.79,.94-1.19,1.43-2.54,1.46-4.07-.03-1.43-.5-2.69-1.39-3.77-.9-1.08-2.37-2.06-4.41-2.93-2.04-.87-4.8-1.68-8.27-2.45l-9.33-2.01c-8.29-1.8-14.82-4.81-19.59-9.03-4.77-4.22-7.14-9.99-7.11-17.3-.03-5.94,1.56-11.15,4.78-15.61,3.22-4.46,7.68-7.95,13.39-10.45,5.71-2.5,12.27-3.75,19.68-3.75s14.09,1.26,19.61,3.79c5.52,2.53,9.78,6.09,12.78,10.67,3,4.59,4.52,9.94,4.55,16.07h-24.32Z"/><line class="d" x1="244" y1="244" x2="284" y2="204"/></g><g><polygon class="e" points="244 444 244 244 44 244 4 284 204 284 204 484 244 444"/><rect class="e" x="4" y="284" width="200" height="200"/><path d="M60.31,432v-96h26.06v38.81h1.31l28.88-38.81h30.38l-32.44,42.75,33.19,53.25h-31.12l-21.56-36-8.62,11.25v24.75h-26.06Z"/><line class="d" x1="204" y1="284" x2="244" y2="244"/></g><g><polygon class="e" points="244 444 244 244 444 244 484 284 284 284 284 484 244 444"/><rect class="e" x="284" y="284" width="200" height="200"/><path d="M368.79,336v21.27h24.37v43.65c-.03,2.44-.39,4.48-1.06,6.13-.68,1.65-1.67,2.89-2.98,3.72s-2.92,1.25-4.83,1.25-3.48-.41-4.79-1.23c-1.31-.82-2.33-2.04-3.05-3.68-.73-1.63-1.13-3.64-1.23-6.01h-25.71c-.03,7.28,1.45,13.19,4.44,17.73,2.99,4.55,7,7.88,12.02,9.99,5.03,2.11,10.57,3.17,16.65,3.17,7,0,13.19-1.3,18.57-3.91,5.38-2.6,9.6-6.24,12.67-10.91,3.07-4.67,4.62-10.09,4.65-16.25v-64.92h-49.71Z"/><line class="d" x1="244" y1="244" x2="284" y2="284"/></g></g></g></g></svg>